<svg xmlns="http://www.w3.org/2000/svg" viewBox="0 0 220 340" width="440" height="640" role="img" aria-label="lembar acuan wayang">
  <rect width="220" height="340" fill="#F4E6C8"/>
  <rect x="8" y="8" width="204" height="324" fill="none" stroke="#CDB98A" stroke-width="0.6"/>
  <path d="M122.0,36.0 C119.3,36.0 114.0,37.7 110.0,40.0 C106.0,42.3 101.3,46.0 98.0,50.0 C94.7,54.0 92.0,59.0 90.0,64.0 C88.0,69.0 88.0,75.7 86.0,80.0 C84.0,84.3 81.0,87.0 78.0,90.0 C75.0,93.0 71.0,95.0 68.0,98.0 C65.0,101.0 61.7,104.7 60.0,108.0 C58.3,111.3 56.7,115.7 58.0,118.0 C59.3,120.3 64.0,120.3 68.0,122.0 C72.0,123.7 78.0,125.0 82.0,128.0 C86.0,131.0 91.3,135.7 92.0,140.0 C92.7,144.3 89.0,149.7 86.0,154.0 C83.0,158.3 78.7,162.7 74.0,166.0 C69.3,169.3 63.0,170.7 58.0,174.0 C53.0,177.3 48.0,182.3 44.0,186.0 C40.0,189.7 36.7,195.3 34.0,196.0 C31.3,196.7 30.0,192.3 28.0,190.0 C26.0,187.7 23.3,181.7 22.0,182.0 C20.7,182.3 18.3,188.0 20.0,192.0 C21.7,196.0 27.0,202.3 32.0,206.0 C37.0,209.7 44.0,214.0 50.0,214.0 C56.0,214.0 63.0,209.3 68.0,206.0 C73.0,202.7 76.3,193.7 80.0,194.0 C83.7,194.3 89.0,202.3 90.0,208.0 C91.0,213.7 88.0,221.3 86.0,228.0 C84.0,234.7 80.0,242.0 78.0,248.0 C76.0,254.0 73.0,259.7 74.0,264.0 C75.0,268.3 81.0,269.7 84.0,274.0 C87.0,278.3 91.0,284.3 92.0,290.0 C93.0,295.7 91.3,302.7 90.0,308.0 C88.7,313.3 87.0,318.3 84.0,322.0 C81.0,325.7 74.7,328.0 72.0,330.0 C69.3,332.0 65.3,333.3 68.0,334.0 C70.7,334.7 82.7,336.3 88.0,334.0 C93.3,331.7 96.7,325.7 100.0,320.0 C103.3,314.3 105.7,306.0 108.0,300.0 C110.3,294.0 111.0,284.0 114.0,284.0 C117.0,284.0 122.7,294.3 126.0,300.0 C129.3,305.7 130.3,313.0 134.0,318.0 C137.7,323.0 142.7,327.3 148.0,330.0 C153.3,332.7 165.0,336.0 166.0,334.0 C167.0,332.0 157.7,324.0 154.0,318.0 C150.3,312.0 146.7,304.3 144.0,298.0 C141.3,291.7 136.0,285.3 138.0,280.0 C140.0,274.7 150.7,271.3 156.0,266.0 C161.3,260.7 166.3,254.3 170.0,248.0 C173.7,241.7 177.0,234.3 178.0,228.0 C179.0,221.7 177.7,215.7 176.0,210.0 C174.3,204.3 167.7,198.0 168.0,194.0 C168.3,190.0 174.7,186.0 178.0,186.0 C181.3,186.0 187.3,195.7 188.0,194.0 C188.7,192.3 185.3,180.7 182.0,176.0 C178.7,171.3 172.3,169.0 168.0,166.0 C163.7,163.0 159.0,162.0 156.0,158.0 C153.0,154.0 151.3,148.0 150.0,142.0 C148.7,136.0 148.0,128.7 148.0,122.0 C148.0,115.3 150.0,108.7 150.0,102.0 C150.0,95.3 149.7,88.7 148.0,82.0 C146.3,75.3 142.7,67.7 140.0,62.0 C137.3,56.3 134.3,51.7 132.0,48.0 C129.7,44.3 127.7,42.0 126.0,40.0 Z" fill="#2A2118" stroke="#1A140E" stroke-width="1.4" stroke-linejoin="round"/>
  <path d="M72.0,68.0 C74.7,67.7 84.0,65.3 88.0,66.0 C92.0,66.7 94.7,71.0 96.0,72.0" fill="none" stroke="#E7D3A4" stroke-width="1.15" stroke-linecap="round" stroke-linejoin="round"/>
  <path d="M76.0,76.0 C77.7,75.3 83.3,71.3 86.0,72.0 C88.7,72.7 92.3,78.3 92.0,80.0 C91.7,81.7 86.7,82.7 84.0,82.0 C81.3,81.3 77.3,77.0 76.0,76.0 Z" fill="none" stroke="#E7D3A4" stroke-width="1.15" stroke-linecap="round" stroke-linejoin="round"/>
  <path d="M84.0,100.0 C85.0,101.3 89.0,106.7 90.0,108.0" fill="none" stroke="#E7D3A4" stroke-width="1.15" stroke-linecap="round" stroke-linejoin="round"/>
  <path d="M88.0,142.0 C91.3,144.7 101.3,156.7 108.0,158.0 C114.7,159.3 124.7,151.3 128.0,150.0" fill="none" stroke="#E7D3A4" stroke-width="1.15" stroke-linecap="round" stroke-linejoin="round"/>
  <path d="M96.0,202.0 C100.0,203.3 116.0,208.7 120.0,210.0" fill="none" stroke="#E7D3A4" stroke-width="1.15" stroke-linecap="round" stroke-linejoin="round"/>
  <path d="M100.0,232.0 C101.3,238.7 106.7,265.3 108.0,272.0" fill="none" stroke="#E7D3A4" stroke-width="1.15" stroke-linecap="round" stroke-linejoin="round"/>
  <ellipse cx="80.0" cy="72.0" rx="6.5" ry="3.4" fill="#F4E6C8"/>
  <circle cx="78.5" cy="72.0" r="1.6" fill="#1A140E"/>
</svg>
